<svg viewBox="0 0 210 39" xmlns="http://www.w3.org/2000/svg" role="img" aria-label="HWASHIN">
  <g fill="#004098">
    <g id="hwashin-symbol">
      <path d="M8.5 1 13.5 1 14 2.5 8 15.5 8 18 10 16.5 13 10.5 13 8.5 17.5 1 22 1 22 4.5 16 17.5 17.5 18 21 12.5 21 10.5 24 5.5 25 1 31 1 31 3.5 28 8.5 28 10.5 26 13.5 25 18 45.5 18 46 21.5 41 32.5 40 37.5 38.5 39 33 37.5 39 22.5 16.5 22 17 23.5 17 25.5 23 37.5 17.5 39 14 33.5 14 31.5 11 26.5 10 22 8 24.5 14 36.5 14 39 8.5 39 8 37.5 4 30.5 4 28.5 0 19.5 6 6.5 6 4.5 8.5 1Z" />
      <path d="M34.5 1 41 2.5 45 11.5 46 17 41.5 17 40 15.5 35 4.5 34.5 1Z" />
      <path d="M19.5 23 26 24.5 30 33.5 31 39 26.5 39 25 37.5 20 26.5 19.5 23Z" />
    </g>
    <text x="50" y="30.5" font-family="Arial, Helvetica, 'Segoe UI', sans-serif" font-weight="700" font-size="27" letter-spacing="-0.5">HWASHIN</text>
  </g>
</svg>
